# xmcd
#
# Track frame offsets:
#	150
#	14508
#	33977
#	45140
#	57620
#	71200
#	86703
#	102374
#	117486
#	131792
#	147128
#	161015
#	177856
#	199057
#	215229
#	232571
#	245850
#	265729
#	283934
#	302046
#	321358
#	339953
#
# Disc length: 4762 seconds
#
# Revision: 0
# Processed by: cddbd v1.5.2PL0 Copyright (c) Steve Scherf et al.
# Submitted via: EZCDAudioConverter 1.3.4.1
#
DISCID=4f129816
DTITLE=Swingblues 21-1-2014.
DYEAR=1900
DGENRE=
TTITLE0=Restless - Weeken Girl R S (fin)
TTITLE1=Restless - Empty Hands R S (fin)
TTITLE2=Restless - Shopping Around R S (fin)
TTITLE3=Restless - Poor Man's Prison R S (bra)
TTITLE4=The Derailers - You're Looking At The Man C S (fin)
TTITLE5=Tamra Rosanes/John Prine - I Just Vonna Dance With You G L (fin)
TTITLE6=Tamra Rosanes - All Shook Up R S (fin)
TTITLE7=The Unkool Hillbillies - Send Me Some Loving G L (fin)
TTITLE8=The Unkool Hillbillies - Blisters R R (fin)
TTITLE9=The Unkool Hillbillies - Dirty Man J B (fin)
TTITLE10=The King Bees - The Hustle Is On J B (superb)
TTITLE11=The King Bees - High Class Woman J B (superb)
TTITLE12=The King Bees - Getting Tired S B (fin)
TTITLE13=The King Bees - How Long S B (fin)
TTITLE14=The King Bees - Blind As A Mole J B (superb)
TTITLE15=The King Bees - Sweet Daddy B B (fin)
TTITLE16=The King Bees - My Baby Done Changed J B (fin)
TTITLE17=The King Bees - As You Please J B (superb)
TTITLE18=The King Bees - That's Tuff J B (superb)
TTITLE19=The King Bees - Where'd You Get To? J B (fin)
TTITLE20=The King Bees - Party Shoppe J B (superb)
TTITLE21=The King Bees - Low Down Dog J B (superb)
EXTD=
EXTT0=
EXTT1=
EXTT2=
EXTT3=
EXTT4=
EXTT5=
EXTT6=
EXTT7=
EXTT8=
EXTT9=
EXTT10=
EXTT11=
EXTT12=
EXTT13=
EXTT14=
EXTT15=
EXTT16=
EXTT17=
EXTT18=
EXTT19=
EXTT20=
EXTT21=
PLAYORDER=
